<?xml version="1.0" encoding="utf-8" standalone="no"?>
<!DOCTYPE svg PUBLIC "-//W3C//DTD SVG 1.1//EN"
  "http://www.w3.org/Graphics/SVG/1.1/DTD/svg11.dtd">
<svg xmlns:xlink="http://www.w3.org/1999/xlink" width="495.170937pt" height="411.039938pt" viewBox="0 0 495.170937 411.039938" xmlns="http://www.w3.org/2000/svg" version="1.1">
 <metadata>
  <rdf:RDF xmlns:dc="http://purl.org/dc/elements/1.1/" xmlns:cc="http://creativecommons.org/ns#" xmlns:rdf="http://www.w3.org/1999/02/22-rdf-syntax-ns#">
   <cc:Work>
    <dc:type rdf:resource="http://purl.org/dc/dcmitype/StillImage"/>
    <dc:date>2026-05-11T12:36:12.781021</dc:date>
    <dc:format>image/svg+xml</dc:format>
    <dc:creator>
     <cc:Agent>
      <dc:title>Matplotlib v3.10.3, https://matplotlib.org/</dc:title>
     </cc:Agent>
    </dc:creator>
   </cc:Work>
  </rdf:RDF>
 </metadata>
 <defs>
  <style type="text/css">*{stroke-linejoin: round; stroke-linecap: butt}</style>
 </defs>
 <g id="figure_1">
  <g id="patch_1">
   <path d="M 0 411.039938 
L 495.170937 411.039938 
L 495.170937 0 
L 0 0 
z
" style="fill: #ffffff"/>
  </g>
  <g id="axes_1">
   <g id="patch_2">
    <path d="M 41.570938 372.515875 
L 487.970937 372.515875 
L 487.970937 39.875875 
L 41.570938 39.875875 
z
" style="fill: #ffffff"/>
   </g>
   <g id="PathCollection_1">
    <defs>
     <path id="mb4d267c41a" d="M 0 4.472136 
C 1.186024 4.472136 2.323632 4.000923 3.162278 3.162278 
C 4.000923 2.323632 4.472136 1.186024 4.472136 0 
C 4.472136 -1.186024 4.000923 -2.323632 3.162278 -3.162278 
C 2.323632 -4.000923 1.186024 -4.472136 0 -4.472136 
C -1.186024 -4.472136 -2.323632 -4.000923 -3.162278 -3.162278 
C -4.000923 -2.323632 -4.472136 -1.186024 -4.472136 0 
C -4.472136 1.186024 -4.000923 2.323632 -3.162278 3.162278 
C -2.323632 4.000923 -1.186024 4.472136 0 4.472136 
z
" style="stroke: #333333; stroke-opacity: 0.7; stroke-width: 0.7"/>
    </defs>
    <g clip-path="url(#pc5473675a1)">
     <use xlink:href="#mb4d267c41a" x="99.797024" y="68.801092" style="fill: #335577; fill-opacity: 0.7; stroke: #333333; stroke-opacity: 0.7; stroke-width: 0.7"/>
     <use xlink:href="#mb4d267c41a" x="255.06659" y="329.128049" style="fill: #335577; fill-opacity: 0.7; stroke: #333333; stroke-opacity: 0.7; stroke-width: 0.7"/>
     <use xlink:href="#mb4d267c41a" x="216.249198" y="358.053266" style="fill: #335577; fill-opacity: 0.7; stroke: #333333; stroke-opacity: 0.7; stroke-width: 0.7"/>
     <use xlink:href="#mb4d267c41a" x="177.431807" y="358.053266" style="fill: #335577; fill-opacity: 0.7; stroke: #333333; stroke-opacity: 0.7; stroke-width: 0.7"/>
     <use xlink:href="#mb4d267c41a" x="216.249198" y="329.128049" style="fill: #335577; fill-opacity: 0.7; stroke: #333333; stroke-opacity: 0.7; stroke-width: 0.7"/>
     <use xlink:href="#mb4d267c41a" x="255.06659" y="271.277614" style="fill: #335577; fill-opacity: 0.7; stroke: #333333; stroke-opacity: 0.7; stroke-width: 0.7"/>
     <use xlink:href="#mb4d267c41a" x="332.701372" y="242.352397" style="fill: #335577; fill-opacity: 0.7; stroke: #333333; stroke-opacity: 0.7; stroke-width: 0.7"/>
     <use xlink:href="#mb4d267c41a" x="410.336155" y="242.352397" style="fill: #335577; fill-opacity: 0.7; stroke: #333333; stroke-opacity: 0.7; stroke-width: 0.7"/>
     <use xlink:href="#mb4d267c41a" x="138.614416" y="358.053266" style="fill: #335577; fill-opacity: 0.7; stroke: #333333; stroke-opacity: 0.7; stroke-width: 0.7"/>
     <use xlink:href="#mb4d267c41a" x="255.06659" y="358.053266" style="fill: #335577; fill-opacity: 0.7; stroke: #333333; stroke-opacity: 0.7; stroke-width: 0.7"/>
     <use xlink:href="#mb4d267c41a" x="138.614416" y="358.053266" style="fill: #335577; fill-opacity: 0.7; stroke: #333333; stroke-opacity: 0.7; stroke-width: 0.7"/>
     <use xlink:href="#mb4d267c41a" x="177.431807" y="358.053266" style="fill: #335577; fill-opacity: 0.7; stroke: #333333; stroke-opacity: 0.7; stroke-width: 0.7"/>
     <use xlink:href="#mb4d267c41a" x="255.06659" y="300.202832" style="fill: #335577; fill-opacity: 0.7; stroke: #333333; stroke-opacity: 0.7; stroke-width: 0.7"/>
     <use xlink:href="#mb4d267c41a" x="255.06659" y="300.202832" style="fill: #335577; fill-opacity: 0.7; stroke: #333333; stroke-opacity: 0.7; stroke-width: 0.7"/>
     <use xlink:href="#mb4d267c41a" x="216.249198" y="358.053266" style="fill: #335577; fill-opacity: 0.7; stroke: #333333; stroke-opacity: 0.7; stroke-width: 0.7"/>
     <use xlink:href="#mb4d267c41a" x="99.797024" y="358.053266" style="fill: #335577; fill-opacity: 0.7; stroke: #333333; stroke-opacity: 0.7; stroke-width: 0.7"/>
     <use xlink:href="#mb4d267c41a" x="255.06659" y="358.053266" style="fill: #335577; fill-opacity: 0.7; stroke: #333333; stroke-opacity: 0.7; stroke-width: 0.7"/>
     <use xlink:href="#mb4d267c41a" x="255.06659" y="271.277614" style="fill: #335577; fill-opacity: 0.7; stroke: #333333; stroke-opacity: 0.7; stroke-width: 0.7"/>
     <use xlink:href="#mb4d267c41a" x="293.883981" y="300.202832" style="fill: #335577; fill-opacity: 0.7; stroke: #333333; stroke-opacity: 0.7; stroke-width: 0.7"/>
     <use xlink:href="#mb4d267c41a" x="293.883981" y="300.202832" style="fill: #335577; fill-opacity: 0.7; stroke: #333333; stroke-opacity: 0.7; stroke-width: 0.7"/>
     <use xlink:href="#mb4d267c41a" x="293.883981" y="358.053266" style="fill: #335577; fill-opacity: 0.7; stroke: #333333; stroke-opacity: 0.7; stroke-width: 0.7"/>
     <use xlink:href="#mb4d267c41a" x="99.797024" y="358.053266" style="fill: #335577; fill-opacity: 0.7; stroke: #333333; stroke-opacity: 0.7; stroke-width: 0.7"/>
    </g>
   </g>
   <g id="matplotlib.axis_1">
    <g id="xtick_1">
     <g id="line2d_1">
      <path d="M 60.979633 372.515875 
L 60.979633 39.875875 
" clip-path="url(#pc5473675a1)" style="fill: none; stroke: #b0b0b0; stroke-opacity: 0.2; stroke-width: 0.8; stroke-linecap: square"/>
     </g>
     <g id="line2d_2">
      <defs>
       <path id="mdad6dd1d96" d="M 0 0 
L 0 3.5 
" style="stroke: #000000; stroke-width: 0.8"/>
      </defs>
      <g>
       <use xlink:href="#mdad6dd1d96" x="60.979633" y="372.515875" style="stroke: #000000; stroke-width: 0.8"/>
      </g>
     </g>
     <g id="text_1">
      <!-- 0 -->
      <g transform="translate(57.798383 387.114312) scale(0.1 -0.1)">
       <defs>
        <path id="DejaVuSans-30" d="M 2034 4250 
Q 1547 4250 1301 3770 
Q 1056 3291 1056 2328 
Q 1056 1369 1301 889 
Q 1547 409 2034 409 
Q 2525 409 2770 889 
Q 3016 1369 3016 2328 
Q 3016 3291 2770 3770 
Q 2525 4250 2034 4250 
z
M 2034 4750 
Q 2819 4750 3233 4129 
Q 3647 3509 3647 2328 
Q 3647 1150 3233 529 
Q 2819 -91 2034 -91 
Q 1250 -91 836 529 
Q 422 1150 422 2328 
Q 422 3509 836 4129 
Q 1250 4750 2034 4750 
z
" transform="scale(0.015625)"/>
       </defs>
       <use xlink:href="#DejaVuSans-30"/>
      </g>
     </g>
    </g>
    <g id="xtick_2">
     <g id="line2d_3">
      <path d="M 138.614416 372.515875 
L 138.614416 39.875875 
" clip-path="url(#pc5473675a1)" style="fill: none; stroke: #b0b0b0; stroke-opacity: 0.2; stroke-width: 0.8; stroke-linecap: square"/>
     </g>
     <g id="line2d_4">
      <g>
       <use xlink:href="#mdad6dd1d96" x="138.614416" y="372.515875" style="stroke: #000000; stroke-width: 0.8"/>
      </g>
     </g>
     <g id="text_2">
      <!-- 2 -->
      <g transform="translate(135.433166 387.114312) scale(0.1 -0.1)">
       <defs>
        <path id="DejaVuSans-32" d="M 1228 531 
L 3431 531 
L 3431 0 
L 469 0 
L 469 531 
Q 828 903 1448 1529 
Q 2069 2156 2228 2338 
Q 2531 2678 2651 2914 
Q 2772 3150 2772 3378 
Q 2772 3750 2511 3984 
Q 2250 4219 1831 4219 
Q 1534 4219 1204 4116 
Q 875 4013 500 3803 
L 500 4441 
Q 881 4594 1212 4672 
Q 1544 4750 1819 4750 
Q 2544 4750 2975 4387 
Q 3406 4025 3406 3419 
Q 3406 3131 3298 2873 
Q 3191 2616 2906 2266 
Q 2828 2175 2409 1742 
Q 1991 1309 1228 531 
z
" transform="scale(0.015625)"/>
       </defs>
       <use xlink:href="#DejaVuSans-32"/>
      </g>
     </g>
    </g>
    <g id="xtick_3">
     <g id="line2d_5">
      <path d="M 216.249198 372.515875 
L 216.249198 39.875875 
" clip-path="url(#pc5473675a1)" style="fill: none; stroke: #b0b0b0; stroke-opacity: 0.2; stroke-width: 0.8; stroke-linecap: square"/>
     </g>
     <g id="line2d_6">
      <g>
       <use xlink:href="#mdad6dd1d96" x="216.249198" y="372.515875" style="stroke: #000000; stroke-width: 0.8"/>
      </g>
     </g>
     <g id="text_3">
      <!-- 4 -->
      <g transform="translate(213.067948 387.114312) scale(0.1 -0.1)">
       <defs>
        <path id="DejaVuSans-34" d="M 2419 4116 
L 825 1625 
L 2419 1625 
L 2419 4116 
z
M 2253 4666 
L 3047 4666 
L 3047 1625 
L 3713 1625 
L 3713 1100 
L 3047 1100 
L 3047 0 
L 2419 0 
L 2419 1100 
L 313 1100 
L 313 1709 
L 2253 4666 
z
" transform="scale(0.015625)"/>
       </defs>
       <use xlink:href="#DejaVuSans-34"/>
      </g>
     </g>
    </g>
    <g id="xtick_4">
     <g id="line2d_7">
      <path d="M 293.883981 372.515875 
L 293.883981 39.875875 
" clip-path="url(#pc5473675a1)" style="fill: none; stroke: #b0b0b0; stroke-opacity: 0.2; stroke-width: 0.8; stroke-linecap: square"/>
     </g>
     <g id="line2d_8">
      <g>
       <use xlink:href="#mdad6dd1d96" x="293.883981" y="372.515875" style="stroke: #000000; stroke-width: 0.8"/>
      </g>
     </g>
     <g id="text_4">
      <!-- 6 -->
      <g transform="translate(290.702731 387.114312) scale(0.1 -0.1)">
       <defs>
        <path id="DejaVuSans-36" d="M 2113 2584 
Q 1688 2584 1439 2293 
Q 1191 2003 1191 1497 
Q 1191 994 1439 701 
Q 1688 409 2113 409 
Q 2538 409 2786 701 
Q 3034 994 3034 1497 
Q 3034 2003 2786 2293 
Q 2538 2584 2113 2584 
z
M 3366 4563 
L 3366 3988 
Q 3128 4100 2886 4159 
Q 2644 4219 2406 4219 
Q 1781 4219 1451 3797 
Q 1122 3375 1075 2522 
Q 1259 2794 1537 2939 
Q 1816 3084 2150 3084 
Q 2853 3084 3261 2657 
Q 3669 2231 3669 1497 
Q 3669 778 3244 343 
Q 2819 -91 2113 -91 
Q 1303 -91 875 529 
Q 447 1150 447 2328 
Q 447 3434 972 4092 
Q 1497 4750 2381 4750 
Q 2619 4750 2861 4703 
Q 3103 4656 3366 4563 
z
" transform="scale(0.015625)"/>
       </defs>
       <use xlink:href="#DejaVuSans-36"/>
      </g>
     </g>
    </g>
    <g id="xtick_5">
     <g id="line2d_9">
      <path d="M 371.518764 372.515875 
L 371.518764 39.875875 
" clip-path="url(#pc5473675a1)" style="fill: none; stroke: #b0b0b0; stroke-opacity: 0.2; stroke-width: 0.8; stroke-linecap: square"/>
     </g>
     <g id="line2d_10">
      <g>
       <use xlink:href="#mdad6dd1d96" x="371.518764" y="372.515875" style="stroke: #000000; stroke-width: 0.8"/>
      </g>
     </g>
     <g id="text_5">
      <!-- 8 -->
      <g transform="translate(368.337514 387.114312) scale(0.1 -0.1)">
       <defs>
        <path id="DejaVuSans-38" d="M 2034 2216 
Q 1584 2216 1326 1975 
Q 1069 1734 1069 1313 
Q 1069 891 1326 650 
Q 1584 409 2034 409 
Q 2484 409 2743 651 
Q 3003 894 3003 1313 
Q 3003 1734 2745 1975 
Q 2488 2216 2034 2216 
z
M 1403 2484 
Q 997 2584 770 2862 
Q 544 3141 544 3541 
Q 544 4100 942 4425 
Q 1341 4750 2034 4750 
Q 2731 4750 3128 4425 
Q 3525 4100 3525 3541 
Q 3525 3141 3298 2862 
Q 3072 2584 2669 2484 
Q 3125 2378 3379 2068 
Q 3634 1759 3634 1313 
Q 3634 634 3220 271 
Q 2806 -91 2034 -91 
Q 1263 -91 848 271 
Q 434 634 434 1313 
Q 434 1759 690 2068 
Q 947 2378 1403 2484 
z
M 1172 3481 
Q 1172 3119 1398 2916 
Q 1625 2713 2034 2713 
Q 2441 2713 2670 2916 
Q 2900 3119 2900 3481 
Q 2900 3844 2670 4047 
Q 2441 4250 2034 4250 
Q 1625 4250 1398 4047 
Q 1172 3844 1172 3481 
z
" transform="scale(0.015625)"/>
       </defs>
       <use xlink:href="#DejaVuSans-38"/>
      </g>
     </g>
    </g>
    <g id="xtick_6">
     <g id="line2d_11">
      <path d="M 449.153546 372.515875 
L 449.153546 39.875875 
" clip-path="url(#pc5473675a1)" style="fill: none; stroke: #b0b0b0; stroke-opacity: 0.2; stroke-width: 0.8; stroke-linecap: square"/>
     </g>
     <g id="line2d_12">
      <g>
       <use xlink:href="#mdad6dd1d96" x="449.153546" y="372.515875" style="stroke: #000000; stroke-width: 0.8"/>
      </g>
     </g>
     <g id="text_6">
      <!-- 10 -->
      <g transform="translate(442.791046 387.114312) scale(0.1 -0.1)">
       <defs>
        <path id="DejaVuSans-31" d="M 794 531 
L 1825 531 
L 1825 4091 
L 703 3866 
L 703 4441 
L 1819 4666 
L 2450 4666 
L 2450 531 
L 3481 531 
L 3481 0 
L 794 0 
L 794 531 
z
" transform="scale(0.015625)"/>
       </defs>
       <use xlink:href="#DejaVuSans-31"/>
       <use xlink:href="#DejaVuSans-30" transform="translate(63.623047 0)"/>
      </g>
     </g>
    </g>
    <g id="text_7">
     <!-- predicted hosts (predictor count) -->
     <g transform="translate(174.052734 401.552281) scale(0.11 -0.11)">
      <defs>
       <path id="DejaVuSans-70" d="M 1159 525 
L 1159 -1331 
L 581 -1331 
L 581 3500 
L 1159 3500 
L 1159 2969 
Q 1341 3281 1617 3432 
Q 1894 3584 2278 3584 
Q 2916 3584 3314 3078 
Q 3713 2572 3713 1747 
Q 3713 922 3314 415 
Q 2916 -91 2278 -91 
Q 1894 -91 1617 61 
Q 1341 213 1159 525 
z
M 3116 1747 
Q 3116 2381 2855 2742 
Q 2594 3103 2138 3103 
Q 1681 3103 1420 2742 
Q 1159 2381 1159 1747 
Q 1159 1113 1420 752 
Q 1681 391 2138 391 
Q 2594 391 2855 752 
Q 3116 1113 3116 1747 
z
" transform="scale(0.015625)"/>
       <path id="DejaVuSans-72" d="M 2631 2963 
Q 2534 3019 2420 3045 
Q 2306 3072 2169 3072 
Q 1681 3072 1420 2755 
Q 1159 2438 1159 1844 
L 1159 0 
L 581 0 
L 581 3500 
L 1159 3500 
L 1159 2956 
Q 1341 3275 1631 3429 
Q 1922 3584 2338 3584 
Q 2397 3584 2469 3576 
Q 2541 3569 2628 3553 
L 2631 2963 
z
" transform="scale(0.015625)"/>
       <path id="DejaVuSans-65" d="M 3597 1894 
L 3597 1613 
L 953 1613 
Q 991 1019 1311 708 
Q 1631 397 2203 397 
Q 2534 397 2845 478 
Q 3156 559 3463 722 
L 3463 178 
Q 3153 47 2828 -22 
Q 2503 -91 2169 -91 
Q 1331 -91 842 396 
Q 353 884 353 1716 
Q 353 2575 817 3079 
Q 1281 3584 2069 3584 
Q 2775 3584 3186 3129 
Q 3597 2675 3597 1894 
z
M 3022 2063 
Q 3016 2534 2758 2815 
Q 2500 3097 2075 3097 
Q 1594 3097 1305 2825 
Q 1016 2553 972 2059 
L 3022 2063 
z
" transform="scale(0.015625)"/>
       <path id="DejaVuSans-64" d="M 2906 2969 
L 2906 4863 
L 3481 4863 
L 3481 0 
L 2906 0 
L 2906 525 
Q 2725 213 2448 61 
Q 2172 -91 1784 -91 
Q 1150 -91 751 415 
Q 353 922 353 1747 
Q 353 2572 751 3078 
Q 1150 3584 1784 3584 
Q 2172 3584 2448 3432 
Q 2725 3281 2906 2969 
z
M 947 1747 
Q 947 1113 1208 752 
Q 1469 391 1925 391 
Q 2381 391 2643 752 
Q 2906 1113 2906 1747 
Q 2906 2381 2643 2742 
Q 2381 3103 1925 3103 
Q 1469 3103 1208 2742 
Q 947 2381 947 1747 
z
" transform="scale(0.015625)"/>
       <path id="DejaVuSans-69" d="M 603 3500 
L 1178 3500 
L 1178 0 
L 603 0 
L 603 3500 
z
M 603 4863 
L 1178 4863 
L 1178 4134 
L 603 4134 
L 603 4863 
z
" transform="scale(0.015625)"/>
       <path id="DejaVuSans-63" d="M 3122 3366 
L 3122 2828 
Q 2878 2963 2633 3030 
Q 2388 3097 2138 3097 
Q 1578 3097 1268 2742 
Q 959 2388 959 1747 
Q 959 1106 1268 751 
Q 1578 397 2138 397 
Q 2388 397 2633 464 
Q 2878 531 3122 666 
L 3122 134 
Q 2881 22 2623 -34 
Q 2366 -91 2075 -91 
Q 1284 -91 818 406 
Q 353 903 353 1747 
Q 353 2603 823 3093 
Q 1294 3584 2113 3584 
Q 2378 3584 2631 3529 
Q 2884 3475 3122 3366 
z
" transform="scale(0.015625)"/>
       <path id="DejaVuSans-74" d="M 1172 4494 
L 1172 3500 
L 2356 3500 
L 2356 3053 
L 1172 3053 
L 1172 1153 
Q 1172 725 1289 603 
Q 1406 481 1766 481 
L 2356 481 
L 2356 0 
L 1766 0 
Q 1100 0 847 248 
Q 594 497 594 1153 
L 594 3053 
L 172 3053 
L 172 3500 
L 594 3500 
L 594 4494 
L 1172 4494 
z
" transform="scale(0.015625)"/>
       <path id="DejaVuSans-20" transform="scale(0.015625)"/>
       <path id="DejaVuSans-68" d="M 3513 2113 
L 3513 0 
L 2938 0 
L 2938 2094 
Q 2938 2591 2744 2837 
Q 2550 3084 2163 3084 
Q 1697 3084 1428 2787 
Q 1159 2491 1159 1978 
L 1159 0 
L 581 0 
L 581 4863 
L 1159 4863 
L 1159 2956 
Q 1366 3272 1645 3428 
Q 1925 3584 2291 3584 
Q 2894 3584 3203 3211 
Q 3513 2838 3513 2113 
z
" transform="scale(0.015625)"/>
       <path id="DejaVuSans-6f" d="M 1959 3097 
Q 1497 3097 1228 2736 
Q 959 2375 959 1747 
Q 959 1119 1226 758 
Q 1494 397 1959 397 
Q 2419 397 2687 759 
Q 2956 1122 2956 1747 
Q 2956 2369 2687 2733 
Q 2419 3097 1959 3097 
z
M 1959 3584 
Q 2709 3584 3137 3096 
Q 3566 2609 3566 1747 
Q 3566 888 3137 398 
Q 2709 -91 1959 -91 
Q 1206 -91 779 398 
Q 353 888 353 1747 
Q 353 2609 779 3096 
Q 1206 3584 1959 3584 
z
" transform="scale(0.015625)"/>
       <path id="DejaVuSans-73" d="M 2834 3397 
L 2834 2853 
Q 2591 2978 2328 3040 
Q 2066 3103 1784 3103 
Q 1356 3103 1142 2972 
Q 928 2841 928 2578 
Q 928 2378 1081 2264 
Q 1234 2150 1697 2047 
L 1894 2003 
Q 2506 1872 2764 1633 
Q 3022 1394 3022 966 
Q 3022 478 2636 193 
Q 2250 -91 1575 -91 
Q 1294 -91 989 -36 
Q 684 19 347 128 
L 347 722 
Q 666 556 975 473 
Q 1284 391 1588 391 
Q 1994 391 2212 530 
Q 2431 669 2431 922 
Q 2431 1156 2273 1281 
Q 2116 1406 1581 1522 
L 1381 1569 
Q 847 1681 609 1914 
Q 372 2147 372 2553 
Q 372 3047 722 3315 
Q 1072 3584 1716 3584 
Q 2034 3584 2315 3537 
Q 2597 3491 2834 3397 
z
" transform="scale(0.015625)"/>
       <path id="DejaVuSans-28" d="M 1984 4856 
Q 1566 4138 1362 3434 
Q 1159 2731 1159 2009 
Q 1159 1288 1364 580 
Q 1569 -128 1984 -844 
L 1484 -844 
Q 1016 -109 783 600 
Q 550 1309 550 2009 
Q 550 2706 781 3412 
Q 1013 4119 1484 4856 
L 1984 4856 
z
" transform="scale(0.015625)"/>
       <path id="DejaVuSans-75" d="M 544 1381 
L 544 3500 
L 1119 3500 
L 1119 1403 
Q 1119 906 1312 657 
Q 1506 409 1894 409 
Q 2359 409 2629 706 
Q 2900 1003 2900 1516 
L 2900 3500 
L 3475 3500 
L 3475 0 
L 2900 0 
L 2900 538 
Q 2691 219 2414 64 
Q 2138 -91 1772 -91 
Q 1169 -91 856 284 
Q 544 659 544 1381 
z
M 1991 3584 
L 1991 3584 
z
" transform="scale(0.015625)"/>
       <path id="DejaVuSans-6e" d="M 3513 2113 
L 3513 0 
L 2938 0 
L 2938 2094 
Q 2938 2591 2744 2837 
Q 2550 3084 2163 3084 
Q 1697 3084 1428 2787 
Q 1159 2491 1159 1978 
L 1159 0 
L 581 0 
L 581 3500 
L 1159 3500 
L 1159 2956 
Q 1366 3272 1645 3428 
Q 1925 3584 2291 3584 
Q 2894 3584 3203 3211 
Q 3513 2838 3513 2113 
z
" transform="scale(0.015625)"/>
       <path id="DejaVuSans-29" d="M 513 4856 
L 1013 4856 
Q 1481 4119 1714 3412 
Q 1947 2706 1947 2009 
Q 1947 1309 1714 600 
Q 1481 -109 1013 -844 
L 513 -844 
Q 928 -128 1133 580 
Q 1338 1288 1338 2009 
Q 1338 2731 1133 3434 
Q 928 4138 513 4856 
z
" transform="scale(0.015625)"/>
      </defs>
      <use xlink:href="#DejaVuSans-70"/>
      <use xlink:href="#DejaVuSans-72" transform="translate(63.476562 0)"/>
      <use xlink:href="#DejaVuSans-65" transform="translate(102.339844 0)"/>
      <use xlink:href="#DejaVuSans-64" transform="translate(163.863281 0)"/>
      <use xlink:href="#DejaVuSans-69" transform="translate(227.339844 0)"/>
      <use xlink:href="#DejaVuSans-63" transform="translate(255.123047 0)"/>
      <use xlink:href="#DejaVuSans-74" transform="translate(310.103516 0)"/>
      <use xlink:href="#DejaVuSans-65" transform="translate(349.3125 0)"/>
      <use xlink:href="#DejaVuSans-64" transform="translate(410.835938 0)"/>
      <use xlink:href="#DejaVuSans-20" transform="translate(474.3125 0)"/>
      <use xlink:href="#DejaVuSans-68" transform="translate(506.099609 0)"/>
      <use xlink:href="#DejaVuSans-6f" transform="translate(569.478516 0)"/>
      <use xlink:href="#DejaVuSans-73" transform="translate(630.660156 0)"/>
      <use xlink:href="#DejaVuSans-74" transform="translate(682.759766 0)"/>
      <use xlink:href="#DejaVuSans-73" transform="translate(721.96875 0)"/>
      <use xlink:href="#DejaVuSans-20" transform="translate(774.068359 0)"/>
      <use xlink:href="#DejaVuSans-28" transform="translate(805.855469 0)"/>
      <use xlink:href="#DejaVuSans-70" transform="translate(844.869141 0)"/>
      <use xlink:href="#DejaVuSans-72" transform="translate(908.345703 0)"/>
      <use xlink:href="#DejaVuSans-65" transform="translate(947.208984 0)"/>
      <use xlink:href="#DejaVuSans-64" transform="translate(1008.732422 0)"/>
      <use xlink:href="#DejaVuSans-69" transform="translate(1072.208984 0)"/>
      <use xlink:href="#DejaVuSans-63" transform="translate(1099.992188 0)"/>
      <use xlink:href="#DejaVuSans-74" transform="translate(1154.972656 0)"/>
      <use xlink:href="#DejaVuSans-6f" transform="translate(1194.181641 0)"/>
      <use xlink:href="#DejaVuSans-72" transform="translate(1255.363281 0)"/>
      <use xlink:href="#DejaVuSans-20" transform="translate(1296.476562 0)"/>
      <use xlink:href="#DejaVuSans-63" transform="translate(1328.263672 0)"/>
      <use xlink:href="#DejaVuSans-6f" transform="translate(1383.244141 0)"/>
      <use xlink:href="#DejaVuSans-75" transform="translate(1444.425781 0)"/>
      <use xlink:href="#DejaVuSans-6e" transform="translate(1507.804688 0)"/>
      <use xlink:href="#DejaVuSans-74" transform="translate(1571.183594 0)"/>
      <use xlink:href="#DejaVuSans-29" transform="translate(1610.392578 0)"/>
     </g>
    </g>
   </g>
   <g id="matplotlib.axis_2">
    <g id="ytick_1">
     <g id="line2d_13">
      <path d="M 41.570938 358.053266 
L 487.970937 358.053266 
" clip-path="url(#pc5473675a1)" style="fill: none; stroke: #b0b0b0; stroke-opacity: 0.2; stroke-width: 0.8; stroke-linecap: square"/>
     </g>
     <g id="line2d_14">
      <defs>
       <path id="mb2c78dfa60" d="M 0 0 
L -3.5 0 
" style="stroke: #000000; stroke-width: 0.8"/>
      </defs>
      <g>
       <use xlink:href="#mb2c78dfa60" x="41.570938" y="358.053266" style="stroke: #000000; stroke-width: 0.8"/>
      </g>
     </g>
     <g id="text_8">
      <!-- 0 -->
      <g transform="translate(28.208438 361.852485) scale(0.1 -0.1)">
       <use xlink:href="#DejaVuSans-30"/>
      </g>
     </g>
    </g>
    <g id="ytick_2">
     <g id="line2d_15">
      <path d="M 41.570938 300.202832 
L 487.970937 300.202832 
" clip-path="url(#pc5473675a1)" style="fill: none; stroke: #b0b0b0; stroke-opacity: 0.2; stroke-width: 0.8; stroke-linecap: square"/>
     </g>
     <g id="line2d_16">
      <g>
       <use xlink:href="#mb2c78dfa60" x="41.570938" y="300.202832" style="stroke: #000000; stroke-width: 0.8"/>
      </g>
     </g>
     <g id="text_9">
      <!-- 2 -->
      <g transform="translate(28.208438 304.00205) scale(0.1 -0.1)">
       <use xlink:href="#DejaVuSans-32"/>
      </g>
     </g>
    </g>
    <g id="ytick_3">
     <g id="line2d_17">
      <path d="M 41.570938 242.352397 
L 487.970937 242.352397 
" clip-path="url(#pc5473675a1)" style="fill: none; stroke: #b0b0b0; stroke-opacity: 0.2; stroke-width: 0.8; stroke-linecap: square"/>
     </g>
     <g id="line2d_18">
      <g>
       <use xlink:href="#mb2c78dfa60" x="41.570938" y="242.352397" style="stroke: #000000; stroke-width: 0.8"/>
      </g>
     </g>
     <g id="text_10">
      <!-- 4 -->
      <g transform="translate(28.208438 246.151615) scale(0.1 -0.1)">
       <use xlink:href="#DejaVuSans-34"/>
      </g>
     </g>
    </g>
    <g id="ytick_4">
     <g id="line2d_19">
      <path d="M 41.570938 184.501962 
L 487.970937 184.501962 
" clip-path="url(#pc5473675a1)" style="fill: none; stroke: #b0b0b0; stroke-opacity: 0.2; stroke-width: 0.8; stroke-linecap: square"/>
     </g>
     <g id="line2d_20">
      <g>
       <use xlink:href="#mb2c78dfa60" x="41.570938" y="184.501962" style="stroke: #000000; stroke-width: 0.8"/>
      </g>
     </g>
     <g id="text_11">
      <!-- 6 -->
      <g transform="translate(28.208438 188.301181) scale(0.1 -0.1)">
       <use xlink:href="#DejaVuSans-36"/>
      </g>
     </g>
    </g>
    <g id="ytick_5">
     <g id="line2d_21">
      <path d="M 41.570938 126.651527 
L 487.970937 126.651527 
" clip-path="url(#pc5473675a1)" style="fill: none; stroke: #b0b0b0; stroke-opacity: 0.2; stroke-width: 0.8; stroke-linecap: square"/>
     </g>
     <g id="line2d_22">
      <g>
       <use xlink:href="#mb2c78dfa60" x="41.570938" y="126.651527" style="stroke: #000000; stroke-width: 0.8"/>
      </g>
     </g>
     <g id="text_12">
      <!-- 8 -->
      <g transform="translate(28.208438 130.450746) scale(0.1 -0.1)">
       <use xlink:href="#DejaVuSans-38"/>
      </g>
     </g>
    </g>
    <g id="ytick_6">
     <g id="line2d_23">
      <path d="M 41.570938 68.801092 
L 487.970937 68.801092 
" clip-path="url(#pc5473675a1)" style="fill: none; stroke: #b0b0b0; stroke-opacity: 0.2; stroke-width: 0.8; stroke-linecap: square"/>
     </g>
     <g id="line2d_24">
      <g>
       <use xlink:href="#mb2c78dfa60" x="41.570938" y="68.801092" style="stroke: #000000; stroke-width: 0.8"/>
      </g>
     </g>
     <g id="text_13">
      <!-- 10 -->
      <g transform="translate(21.845938 72.600311) scale(0.1 -0.1)">
       <use xlink:href="#DejaVuSans-31"/>
       <use xlink:href="#DejaVuSans-30" transform="translate(63.623047 0)"/>
      </g>
     </g>
    </g>
    <g id="text_14">
     <!-- observed hosts (skill-attributable, agent-infra filtered) -->
     <g transform="translate(15.558281 354.460406) rotate(-90) scale(0.11 -0.11)">
      <defs>
       <path id="DejaVuSans-62" d="M 3116 1747 
Q 3116 2381 2855 2742 
Q 2594 3103 2138 3103 
Q 1681 3103 1420 2742 
Q 1159 2381 1159 1747 
Q 1159 1113 1420 752 
Q 1681 391 2138 391 
Q 2594 391 2855 752 
Q 3116 1113 3116 1747 
z
M 1159 2969 
Q 1341 3281 1617 3432 
Q 1894 3584 2278 3584 
Q 2916 3584 3314 3078 
Q 3713 2572 3713 1747 
Q 3713 922 3314 415 
Q 2916 -91 2278 -91 
Q 1894 -91 1617 61 
Q 1341 213 1159 525 
L 1159 0 
L 581 0 
L 581 4863 
L 1159 4863 
L 1159 2969 
z
" transform="scale(0.015625)"/>
       <path id="DejaVuSans-76" d="M 191 3500 
L 800 3500 
L 1894 563 
L 2988 3500 
L 3597 3500 
L 2284 0 
L 1503 0 
L 191 3500 
z
" transform="scale(0.015625)"/>
       <path id="DejaVuSans-6b" d="M 581 4863 
L 1159 4863 
L 1159 1991 
L 2875 3500 
L 3609 3500 
L 1753 1863 
L 3688 0 
L 2938 0 
L 1159 1709 
L 1159 0 
L 581 0 
L 581 4863 
z
" transform="scale(0.015625)"/>
       <path id="DejaVuSans-6c" d="M 603 4863 
L 1178 4863 
L 1178 0 
L 603 0 
L 603 4863 
z
" transform="scale(0.015625)"/>
       <path id="DejaVuSans-2d" d="M 313 2009 
L 1997 2009 
L 1997 1497 
L 313 1497 
L 313 2009 
z
" transform="scale(0.015625)"/>
       <path id="DejaVuSans-61" d="M 2194 1759 
Q 1497 1759 1228 1600 
Q 959 1441 959 1056 
Q 959 750 1161 570 
Q 1363 391 1709 391 
Q 2188 391 2477 730 
Q 2766 1069 2766 1631 
L 2766 1759 
L 2194 1759 
z
M 3341 1997 
L 3341 0 
L 2766 0 
L 2766 531 
Q 2569 213 2275 61 
Q 1981 -91 1556 -91 
Q 1019 -91 701 211 
Q 384 513 384 1019 
Q 384 1609 779 1909 
Q 1175 2209 1959 2209 
L 2766 2209 
L 2766 2266 
Q 2766 2663 2505 2880 
Q 2244 3097 1772 3097 
Q 1472 3097 1187 3025 
Q 903 2953 641 2809 
L 641 3341 
Q 956 3463 1253 3523 
Q 1550 3584 1831 3584 
Q 2591 3584 2966 3190 
Q 3341 2797 3341 1997 
z
" transform="scale(0.015625)"/>
       <path id="DejaVuSans-2c" d="M 750 794 
L 1409 794 
L 1409 256 
L 897 -744 
L 494 -744 
L 750 256 
L 750 794 
z
" transform="scale(0.015625)"/>
       <path id="DejaVuSans-67" d="M 2906 1791 
Q 2906 2416 2648 2759 
Q 2391 3103 1925 3103 
Q 1463 3103 1205 2759 
Q 947 2416 947 1791 
Q 947 1169 1205 825 
Q 1463 481 1925 481 
Q 2391 481 2648 825 
Q 2906 1169 2906 1791 
z
M 3481 434 
Q 3481 -459 3084 -895 
Q 2688 -1331 1869 -1331 
Q 1566 -1331 1297 -1286 
Q 1028 -1241 775 -1147 
L 775 -588 
Q 1028 -725 1275 -790 
Q 1522 -856 1778 -856 
Q 2344 -856 2625 -561 
Q 2906 -266 2906 331 
L 2906 616 
Q 2728 306 2450 153 
Q 2172 0 1784 0 
Q 1141 0 747 490 
Q 353 981 353 1791 
Q 353 2603 747 3093 
Q 1141 3584 1784 3584 
Q 2172 3584 2450 3431 
Q 2728 3278 2906 2969 
L 2906 3500 
L 3481 3500 
L 3481 434 
z
" transform="scale(0.015625)"/>
       <path id="DejaVuSans-66" d="M 2375 4863 
L 2375 4384 
L 1825 4384 
Q 1516 4384 1395 4259 
Q 1275 4134 1275 3809 
L 1275 3500 
L 2222 3500 
L 2222 3053 
L 1275 3053 
L 1275 0 
L 697 0 
L 697 3053 
L 147 3053 
L 147 3500 
L 697 3500 
L 697 3744 
Q 697 4328 969 4595 
Q 1241 4863 1831 4863 
L 2375 4863 
z
" transform="scale(0.015625)"/>
      </defs>
      <use xlink:href="#DejaVuSans-6f"/>
      <use xlink:href="#DejaVuSans-62" transform="translate(61.181641 0)"/>
      <use xlink:href="#DejaVuSans-73" transform="translate(124.658203 0)"/>
      <use xlink:href="#DejaVuSans-65" transform="translate(176.757812 0)"/>
      <use xlink:href="#DejaVuSans-72" transform="translate(238.28125 0)"/>
      <use xlink:href="#DejaVuSans-76" transform="translate(279.394531 0)"/>
      <use xlink:href="#DejaVuSans-65" transform="translate(338.574219 0)"/>
      <use xlink:href="#DejaVuSans-64" transform="translate(400.097656 0)"/>
      <use xlink:href="#DejaVuSans-20" transform="translate(463.574219 0)"/>
      <use xlink:href="#DejaVuSans-68" transform="translate(495.361328 0)"/>
      <use xlink:href="#DejaVuSans-6f" transform="translate(558.740234 0)"/>
      <use xlink:href="#DejaVuSans-73" transform="translate(619.921875 0)"/>
      <use xlink:href="#DejaVuSans-74" transform="translate(672.021484 0)"/>
      <use xlink:href="#DejaVuSans-73" transform="translate(711.230469 0)"/>
      <use xlink:href="#DejaVuSans-20" transform="translate(763.330078 0)"/>
      <use xlink:href="#DejaVuSans-28" transform="translate(795.117188 0)"/>
      <use xlink:href="#DejaVuSans-73" transform="translate(834.130859 0)"/>
      <use xlink:href="#DejaVuSans-6b" transform="translate(886.230469 0)"/>
      <use xlink:href="#DejaVuSans-69" transform="translate(944.140625 0)"/>
      <use xlink:href="#DejaVuSans-6c" transform="translate(971.923828 0)"/>
      <use xlink:href="#DejaVuSans-6c" transform="translate(999.707031 0)"/>
      <use xlink:href="#DejaVuSans-2d" transform="translate(1027.490234 0)"/>
      <use xlink:href="#DejaVuSans-61" transform="translate(1063.574219 0)"/>
      <use xlink:href="#DejaVuSans-74" transform="translate(1124.853516 0)"/>
      <use xlink:href="#DejaVuSans-74" transform="translate(1164.0625 0)"/>
      <use xlink:href="#DejaVuSans-72" transform="translate(1203.271484 0)"/>
      <use xlink:href="#DejaVuSans-69" transform="translate(1244.384766 0)"/>
      <use xlink:href="#DejaVuSans-62" transform="translate(1272.167969 0)"/>
      <use xlink:href="#DejaVuSans-75" transform="translate(1335.644531 0)"/>
      <use xlink:href="#DejaVuSans-74" transform="translate(1399.023438 0)"/>
      <use xlink:href="#DejaVuSans-61" transform="translate(1438.232422 0)"/>
      <use xlink:href="#DejaVuSans-62" transform="translate(1499.511719 0)"/>
      <use xlink:href="#DejaVuSans-6c" transform="translate(1562.988281 0)"/>
      <use xlink:href="#DejaVuSans-65" transform="translate(1590.771484 0)"/>
      <use xlink:href="#DejaVuSans-2c" transform="translate(1652.294922 0)"/>
      <use xlink:href="#DejaVuSans-20" transform="translate(1684.082031 0)"/>
      <use xlink:href="#DejaVuSans-61" transform="translate(1715.869141 0)"/>
      <use xlink:href="#DejaVuSans-67" transform="translate(1777.148438 0)"/>
      <use xlink:href="#DejaVuSans-65" transform="translate(1840.625 0)"/>
      <use xlink:href="#DejaVuSans-6e" transform="translate(1902.148438 0)"/>
      <use xlink:href="#DejaVuSans-74" transform="translate(1965.527344 0)"/>
      <use xlink:href="#DejaVuSans-2d" transform="translate(2004.736328 0)"/>
      <use xlink:href="#DejaVuSans-69" transform="translate(2040.820312 0)"/>
      <use xlink:href="#DejaVuSans-6e" transform="translate(2068.603516 0)"/>
      <use xlink:href="#DejaVuSans-66" transform="translate(2131.982422 0)"/>
      <use xlink:href="#DejaVuSans-72" transform="translate(2167.1875 0)"/>
      <use xlink:href="#DejaVuSans-61" transform="translate(2208.300781 0)"/>
      <use xlink:href="#DejaVuSans-20" transform="translate(2269.580078 0)"/>
      <use xlink:href="#DejaVuSans-66" transform="translate(2301.367188 0)"/>
      <use xlink:href="#DejaVuSans-69" transform="translate(2336.572266 0)"/>
      <use xlink:href="#DejaVuSans-6c" transform="translate(2364.355469 0)"/>
      <use xlink:href="#DejaVuSans-74" transform="translate(2392.138672 0)"/>
      <use xlink:href="#DejaVuSans-65" transform="translate(2431.347656 0)"/>
      <use xlink:href="#DejaVuSans-72" transform="translate(2492.871094 0)"/>
      <use xlink:href="#DejaVuSans-65" transform="translate(2531.734375 0)"/>
      <use xlink:href="#DejaVuSans-64" transform="translate(2593.257812 0)"/>
      <use xlink:href="#DejaVuSans-29" transform="translate(2656.734375 0)"/>
     </g>
    </g>
   </g>
   <g id="line2d_25">
    <path d="M 60.979633 358.053266 
L 487.970937 39.875875 
" clip-path="url(#pc5473675a1)" style="fill: none; stroke-dasharray: 5.55,2.4; stroke-dashoffset: 0; stroke: #888888; stroke-opacity: 0.6; stroke-width: 1.5"/>
   </g>
   <g id="patch_3">
    <path d="M 41.570938 372.515875 
L 41.570938 39.875875 
" style="fill: none; stroke: #000000; stroke-width: 0.8; stroke-linejoin: miter; stroke-linecap: square"/>
   </g>
   <g id="patch_4">
    <path d="M 41.570938 372.515875 
L 487.970937 372.515875 
" style="fill: none; stroke: #000000; stroke-width: 0.8; stroke-linejoin: miter; stroke-linecap: square"/>
   </g>
   <g id="patch_5">
    <path d="M 116.586025 64.304884 
Q 109.15681 66.294478 101.727596 68.284072 
" style="fill: none; opacity: 0.5; stroke: #888888; stroke-width: 0.5; stroke-linecap: round"/>
   </g>
   <g id="text_15">
    <!-- agent-browser -->
    <g transform="translate(111.442242 60.123527) scale(0.08 -0.08)">
     <defs>
      <path id="DejaVuSans-77" d="M 269 3500 
L 844 3500 
L 1563 769 
L 2278 3500 
L 2956 3500 
L 3675 769 
L 4391 3500 
L 4966 3500 
L 4050 0 
L 3372 0 
L 2619 2869 
L 1863 0 
L 1184 0 
L 269 3500 
z
" transform="scale(0.015625)"/>
     </defs>
     <use xlink:href="#DejaVuSans-61"/>
     <use xlink:href="#DejaVuSans-67" transform="translate(61.279297 0)"/>
     <use xlink:href="#DejaVuSans-65" transform="translate(124.755859 0)"/>
     <use xlink:href="#DejaVuSans-6e" transform="translate(186.279297 0)"/>
     <use xlink:href="#DejaVuSans-74" transform="translate(249.658203 0)"/>
     <use xlink:href="#DejaVuSans-2d" transform="translate(288.867188 0)"/>
     <use xlink:href="#DejaVuSans-62" transform="translate(324.951172 0)"/>
     <use xlink:href="#DejaVuSans-72" transform="translate(388.427734 0)"/>
     <use xlink:href="#DejaVuSans-6f" transform="translate(427.291016 0)"/>
     <use xlink:href="#DejaVuSans-77" transform="translate(488.472656 0)"/>
     <use xlink:href="#DejaVuSans-73" transform="translate(570.259766 0)"/>
     <use xlink:href="#DejaVuSans-65" transform="translate(622.359375 0)"/>
     <use xlink:href="#DejaVuSans-72" transform="translate(683.882812 0)"/>
    </g>
   </g>
   <g id="patch_6">
    <path d="M 273.730467 324.58716 
Q 265.371364 326.620915 257.012262 328.65467 
" style="fill: none; opacity: 0.5; stroke: #888888; stroke-width: 0.5; stroke-linecap: round"/>
   </g>
   <g id="text_16">
    <!-- auth0-quickstart -->
    <g transform="translate(266.711807 320.450484) scale(0.08 -0.08)">
     <defs>
      <path id="DejaVuSans-71" d="M 947 1747 
Q 947 1113 1208 752 
Q 1469 391 1925 391 
Q 2381 391 2643 752 
Q 2906 1113 2906 1747 
Q 2906 2381 2643 2742 
Q 2381 3103 1925 3103 
Q 1469 3103 1208 2742 
Q 947 2381 947 1747 
z
M 2906 525 
Q 2725 213 2448 61 
Q 2172 -91 1784 -91 
Q 1150 -91 751 415 
Q 353 922 353 1747 
Q 353 2572 751 3078 
Q 1150 3584 1784 3584 
Q 2172 3584 2448 3432 
Q 2725 3281 2906 2969 
L 2906 3500 
L 3481 3500 
L 3481 -1331 
L 2906 -1331 
L 2906 525 
z
" transform="scale(0.015625)"/>
     </defs>
     <use xlink:href="#DejaVuSans-61"/>
     <use xlink:href="#DejaVuSans-75" transform="translate(61.279297 0)"/>
     <use xlink:href="#DejaVuSans-74" transform="translate(124.658203 0)"/>
     <use xlink:href="#DejaVuSans-68" transform="translate(163.867188 0)"/>
     <use xlink:href="#DejaVuSans-30" transform="translate(227.246094 0)"/>
     <use xlink:href="#DejaVuSans-2d" transform="translate(290.869141 0)"/>
     <use xlink:href="#DejaVuSans-71" transform="translate(326.953125 0)"/>
     <use xlink:href="#DejaVuSans-75" transform="translate(390.429688 0)"/>
     <use xlink:href="#DejaVuSans-69" transform="translate(453.808594 0)"/>
     <use xlink:href="#DejaVuSans-63" transform="translate(481.591797 0)"/>
     <use xlink:href="#DejaVuSans-6b" transform="translate(536.572266 0)"/>
     <use xlink:href="#DejaVuSans-73" transform="translate(594.482422 0)"/>
     <use xlink:href="#DejaVuSans-74" transform="translate(646.582031 0)"/>
     <use xlink:href="#DejaVuSans-61" transform="translate(685.791016 0)"/>
     <use xlink:href="#DejaVuSans-72" transform="translate(747.070312 0)"/>
     <use xlink:href="#DejaVuSans-74" transform="translate(788.183594 0)"/>
    </g>
   </g>
   <g id="patch_7">
    <path d="M 232.813867 353.561954 
Q 225.496053 355.546092 218.178238 357.53023 
" style="fill: none; opacity: 0.5; stroke: #888888; stroke-width: 0.5; stroke-linecap: round"/>
   </g>
   <g id="text_17">
    <!-- azure-validate -->
    <g transform="translate(227.894416 349.375701) scale(0.08 -0.08)">
     <defs>
      <path id="DejaVuSans-7a" d="M 353 3500 
L 3084 3500 
L 3084 2975 
L 922 459 
L 3084 459 
L 3084 0 
L 275 0 
L 275 525 
L 2438 3041 
L 353 3041 
L 353 3500 
z
" transform="scale(0.015625)"/>
     </defs>
     <use xlink:href="#DejaVuSans-61"/>
     <use xlink:href="#DejaVuSans-7a" transform="translate(61.279297 0)"/>
     <use xlink:href="#DejaVuSans-75" transform="translate(113.769531 0)"/>
     <use xlink:href="#DejaVuSans-72" transform="translate(177.148438 0)"/>
     <use xlink:href="#DejaVuSans-65" transform="translate(216.011719 0)"/>
     <use xlink:href="#DejaVuSans-2d" transform="translate(277.535156 0)"/>
     <use xlink:href="#DejaVuSans-76" transform="translate(310.994141 0)"/>
     <use xlink:href="#DejaVuSans-61" transform="translate(370.173828 0)"/>
     <use xlink:href="#DejaVuSans-6c" transform="translate(431.453125 0)"/>
     <use xlink:href="#DejaVuSans-69" transform="translate(459.236328 0)"/>
     <use xlink:href="#DejaVuSans-64" transform="translate(487.019531 0)"/>
     <use xlink:href="#DejaVuSans-61" transform="translate(550.496094 0)"/>
     <use xlink:href="#DejaVuSans-74" transform="translate(611.775391 0)"/>
     <use xlink:href="#DejaVuSans-65" transform="translate(650.984375 0)"/>
    </g>
   </g>
   <g id="patch_8">
    <path d="M 194.802738 353.542368 
Q 187.08633 355.546172 179.369921 357.549975 
" style="fill: none; opacity: 0.5; stroke: #888888; stroke-width: 0.5; stroke-linecap: round"/>
   </g>
   <g id="text_18">
    <!-- cloudformation -->
    <g transform="translate(189.077024 349.375701) scale(0.08 -0.08)">
     <defs>
      <path id="DejaVuSans-6d" d="M 3328 2828 
Q 3544 3216 3844 3400 
Q 4144 3584 4550 3584 
Q 5097 3584 5394 3201 
Q 5691 2819 5691 2113 
L 5691 0 
L 5113 0 
L 5113 2094 
Q 5113 2597 4934 2840 
Q 4756 3084 4391 3084 
Q 3944 3084 3684 2787 
Q 3425 2491 3425 1978 
L 3425 0 
L 2847 0 
L 2847 2094 
Q 2847 2600 2669 2842 
Q 2491 3084 2119 3084 
Q 1678 3084 1418 2786 
Q 1159 2488 1159 1978 
L 1159 0 
L 581 0 
L 581 3500 
L 1159 3500 
L 1159 2956 
Q 1356 3278 1631 3431 
Q 1906 3584 2284 3584 
Q 2666 3584 2933 3390 
Q 3200 3197 3328 2828 
z
" transform="scale(0.015625)"/>
     </defs>
     <use xlink:href="#DejaVuSans-63"/>
     <use xlink:href="#DejaVuSans-6c" transform="translate(54.980469 0)"/>
     <use xlink:href="#DejaVuSans-6f" transform="translate(82.763672 0)"/>
     <use xlink:href="#DejaVuSans-75" transform="translate(143.945312 0)"/>
     <use xlink:href="#DejaVuSans-64" transform="translate(207.324219 0)"/>
     <use xlink:href="#DejaVuSans-66" transform="translate(270.800781 0)"/>
     <use xlink:href="#DejaVuSans-6f" transform="translate(306.005859 0)"/>
     <use xlink:href="#DejaVuSans-72" transform="translate(367.1875 0)"/>
     <use xlink:href="#DejaVuSans-6d" transform="translate(406.550781 0)"/>
     <use xlink:href="#DejaVuSans-61" transform="translate(503.962891 0)"/>
     <use xlink:href="#DejaVuSans-74" transform="translate(565.242188 0)"/>
     <use xlink:href="#DejaVuSans-69" transform="translate(604.451172 0)"/>
     <use xlink:href="#DejaVuSans-6f" transform="translate(632.234375 0)"/>
     <use xlink:href="#DejaVuSans-6e" transform="translate(693.416016 0)"/>
    </g>
   </g>
   <g id="patch_9">
    <path d="M 357.404895 237.707457 
Q 346.034701 239.845366 334.664506 241.983274 
" style="fill: none; opacity: 0.5; stroke: #888888; stroke-width: 0.5; stroke-linecap: round"/>
   </g>
   <g id="text_19">
    <!-- firebase-hosting-basics -->
    <g transform="translate(344.34659 233.674832) scale(0.08 -0.08)">
     <use xlink:href="#DejaVuSans-66"/>
     <use xlink:href="#DejaVuSans-69" transform="translate(35.205078 0)"/>
     <use xlink:href="#DejaVuSans-72" transform="translate(62.988281 0)"/>
     <use xlink:href="#DejaVuSans-65" transform="translate(101.851562 0)"/>
     <use xlink:href="#DejaVuSans-62" transform="translate(163.375 0)"/>
     <use xlink:href="#DejaVuSans-61" transform="translate(226.851562 0)"/>
     <use xlink:href="#DejaVuSans-73" transform="translate(288.130859 0)"/>
     <use xlink:href="#DejaVuSans-65" transform="translate(340.230469 0)"/>
     <use xlink:href="#DejaVuSans-2d" transform="translate(401.753906 0)"/>
     <use xlink:href="#DejaVuSans-68" transform="translate(437.837891 0)"/>
     <use xlink:href="#DejaVuSans-6f" transform="translate(501.216797 0)"/>
     <use xlink:href="#DejaVuSans-73" transform="translate(562.398438 0)"/>
     <use xlink:href="#DejaVuSans-74" transform="translate(614.498047 0)"/>
     <use xlink:href="#DejaVuSans-69" transform="translate(653.707031 0)"/>
     <use xlink:href="#DejaVuSans-6e" transform="translate(681.490234 0)"/>
     <use xlink:href="#DejaVuSans-67" transform="translate(744.869141 0)"/>
     <use xlink:href="#DejaVuSans-2d" transform="translate(808.345703 0)"/>
     <use xlink:href="#DejaVuSans-62" transform="translate(844.429688 0)"/>
     <use xlink:href="#DejaVuSans-61" transform="translate(907.90625 0)"/>
     <use xlink:href="#DejaVuSans-73" transform="translate(969.185547 0)"/>
     <use xlink:href="#DejaVuSans-69" transform="translate(1021.285156 0)"/>
     <use xlink:href="#DejaVuSans-63" transform="translate(1049.068359 0)"/>
     <use xlink:href="#DejaVuSans-73" transform="translate(1104.048828 0)"/>
    </g>
   </g>
   <g id="patch_10">
    <path d="M 155.115413 353.564403 
Q 147.829756 355.546363 140.544098 357.528324 
" style="fill: none; opacity: 0.5; stroke: #888888; stroke-width: 0.5; stroke-linecap: round"/>
   </g>
   <g id="text_20">
    <!-- pinecone-mcp -->
    <g transform="translate(150.259633 349.375701) scale(0.08 -0.08)">
     <use xlink:href="#DejaVuSans-70"/>
     <use xlink:href="#DejaVuSans-69" transform="translate(63.476562 0)"/>
     <use xlink:href="#DejaVuSans-6e" transform="translate(91.259766 0)"/>
     <use xlink:href="#DejaVuSans-65" transform="translate(154.638672 0)"/>
     <use xlink:href="#DejaVuSans-63" transform="translate(216.162109 0)"/>
     <use xlink:href="#DejaVuSans-6f" transform="translate(271.142578 0)"/>
     <use xlink:href="#DejaVuSans-6e" transform="translate(332.324219 0)"/>
     <use xlink:href="#DejaVuSans-65" transform="translate(395.703125 0)"/>
     <use xlink:href="#DejaVuSans-2d" transform="translate(457.226562 0)"/>
     <use xlink:href="#DejaVuSans-6d" transform="translate(493.310547 0)"/>
     <use xlink:href="#DejaVuSans-63" transform="translate(590.722656 0)"/>
     <use xlink:href="#DejaVuSans-70" transform="translate(645.703125 0)"/>
    </g>
   </g>
   <g id="patch_11">
    <path d="M 266.632874 295.888365 
Q 261.785821 297.696417 256.938769 299.504469 
" style="fill: none; opacity: 0.5; stroke: #888888; stroke-width: 0.5; stroke-linecap: round"/>
   </g>
   <g id="text_21">
    <!-- semgrep -->
    <g transform="translate(266.711807 291.525266) scale(0.08 -0.08)">
     <use xlink:href="#DejaVuSans-73"/>
     <use xlink:href="#DejaVuSans-65" transform="translate(52.099609 0)"/>
     <use xlink:href="#DejaVuSans-6d" transform="translate(113.623047 0)"/>
     <use xlink:href="#DejaVuSans-67" transform="translate(211.035156 0)"/>
     <use xlink:href="#DejaVuSans-72" transform="translate(274.511719 0)"/>
     <use xlink:href="#DejaVuSans-65" transform="translate(313.375 0)"/>
     <use xlink:href="#DejaVuSans-70" transform="translate(374.898438 0)"/>
    </g>
   </g>
   <g id="patch_12">
    <path d="M 305.50541 295.885917 
Q 300.632411 297.696049 295.759412 299.506181 
" style="fill: none; opacity: 0.5; stroke: #888888; stroke-width: 0.5; stroke-linecap: round"/>
   </g>
   <g id="text_22">
    <!-- wrangler -->
    <g transform="translate(305.529198 291.525266) scale(0.08 -0.08)">
     <use xlink:href="#DejaVuSans-77"/>
     <use xlink:href="#DejaVuSans-72" transform="translate(81.787109 0)"/>
     <use xlink:href="#DejaVuSans-61" transform="translate(122.900391 0)"/>
     <use xlink:href="#DejaVuSans-6e" transform="translate(184.179688 0)"/>
     <use xlink:href="#DejaVuSans-67" transform="translate(247.558594 0)"/>
     <use xlink:href="#DejaVuSans-6c" transform="translate(311.035156 0)"/>
     <use xlink:href="#DejaVuSans-65" transform="translate(338.818359 0)"/>
     <use xlink:href="#DejaVuSans-72" transform="translate(400.341797 0)"/>
    </g>
   </g>
   <g id="text_23">
    <!-- Predicted vs Observed host count per skill -->
    <g transform="translate(148.722656 15.558281) scale(0.11 -0.11)">
     <defs>
      <path id="DejaVuSans-50" d="M 1259 4147 
L 1259 2394 
L 2053 2394 
Q 2494 2394 2734 2622 
Q 2975 2850 2975 3272 
Q 2975 3691 2734 3919 
Q 2494 4147 2053 4147 
L 1259 4147 
z
M 628 4666 
L 2053 4666 
Q 2838 4666 3239 4311 
Q 3641 3956 3641 3272 
Q 3641 2581 3239 2228 
Q 2838 1875 2053 1875 
L 1259 1875 
L 1259 0 
L 628 0 
L 628 4666 
z
" transform="scale(0.015625)"/>
      <path id="DejaVuSans-4f" d="M 2522 4238 
Q 1834 4238 1429 3725 
Q 1025 3213 1025 2328 
Q 1025 1447 1429 934 
Q 1834 422 2522 422 
Q 3209 422 3611 934 
Q 4013 1447 4013 2328 
Q 4013 3213 3611 3725 
Q 3209 4238 2522 4238 
z
M 2522 4750 
Q 3503 4750 4090 4092 
Q 4678 3434 4678 2328 
Q 4678 1225 4090 567 
Q 3503 -91 2522 -91 
Q 1538 -91 948 565 
Q 359 1222 359 2328 
Q 359 3434 948 4092 
Q 1538 4750 2522 4750 
z
" transform="scale(0.015625)"/>
     </defs>
     <use xlink:href="#DejaVuSans-50"/>
     <use xlink:href="#DejaVuSans-72" transform="translate(58.552734 0)"/>
     <use xlink:href="#DejaVuSans-65" transform="translate(97.416016 0)"/>
     <use xlink:href="#DejaVuSans-64" transform="translate(158.939453 0)"/>
     <use xlink:href="#DejaVuSans-69" transform="translate(222.416016 0)"/>
     <use xlink:href="#DejaVuSans-63" transform="translate(250.199219 0)"/>
     <use xlink:href="#DejaVuSans-74" transform="translate(305.179688 0)"/>
     <use xlink:href="#DejaVuSans-65" transform="translate(344.388672 0)"/>
     <use xlink:href="#DejaVuSans-64" transform="translate(405.912109 0)"/>
     <use xlink:href="#DejaVuSans-20" transform="translate(469.388672 0)"/>
     <use xlink:href="#DejaVuSans-76" transform="translate(501.175781 0)"/>
     <use xlink:href="#DejaVuSans-73" transform="translate(560.355469 0)"/>
     <use xlink:href="#DejaVuSans-20" transform="translate(612.455078 0)"/>
     <use xlink:href="#DejaVuSans-4f" transform="translate(644.242188 0)"/>
     <use xlink:href="#DejaVuSans-62" transform="translate(722.953125 0)"/>
     <use xlink:href="#DejaVuSans-73" transform="translate(786.429688 0)"/>
     <use xlink:href="#DejaVuSans-65" transform="translate(838.529297 0)"/>
     <use xlink:href="#DejaVuSans-72" transform="translate(900.052734 0)"/>
     <use xlink:href="#DejaVuSans-76" transform="translate(941.166016 0)"/>
     <use xlink:href="#DejaVuSans-65" transform="translate(1000.345703 0)"/>
     <use xlink:href="#DejaVuSans-64" transform="translate(1061.869141 0)"/>
     <use xlink:href="#DejaVuSans-20" transform="translate(1125.345703 0)"/>
     <use xlink:href="#DejaVuSans-68" transform="translate(1157.132812 0)"/>
     <use xlink:href="#DejaVuSans-6f" transform="translate(1220.511719 0)"/>
     <use xlink:href="#DejaVuSans-73" transform="translate(1281.693359 0)"/>
     <use xlink:href="#DejaVuSans-74" transform="translate(1333.792969 0)"/>
     <use xlink:href="#DejaVuSans-20" transform="translate(1373.001953 0)"/>
     <use xlink:href="#DejaVuSans-63" transform="translate(1404.789062 0)"/>
     <use xlink:href="#DejaVuSans-6f" transform="translate(1459.769531 0)"/>
     <use xlink:href="#DejaVuSans-75" transform="translate(1520.951172 0)"/>
     <use xlink:href="#DejaVuSans-6e" transform="translate(1584.330078 0)"/>
     <use xlink:href="#DejaVuSans-74" transform="translate(1647.708984 0)"/>
     <use xlink:href="#DejaVuSans-20" transform="translate(1686.917969 0)"/>
     <use xlink:href="#DejaVuSans-70" transform="translate(1718.705078 0)"/>
     <use xlink:href="#DejaVuSans-65" transform="translate(1782.181641 0)"/>
     <use xlink:href="#DejaVuSans-72" transform="translate(1843.705078 0)"/>
     <use xlink:href="#DejaVuSans-20" transform="translate(1884.818359 0)"/>
     <use xlink:href="#DejaVuSans-73" transform="translate(1916.605469 0)"/>
     <use xlink:href="#DejaVuSans-6b" transform="translate(1968.705078 0)"/>
     <use xlink:href="#DejaVuSans-69" transform="translate(2026.615234 0)"/>
     <use xlink:href="#DejaVuSans-6c" transform="translate(2054.398438 0)"/>
     <use xlink:href="#DejaVuSans-6c" transform="translate(2082.181641 0)"/>
    </g>
    <!-- Above the line = under-prediction (Finding C/G); below = over-prediction -->
    <g transform="translate(64.643984 27.875875) scale(0.11 -0.11)">
     <defs>
      <path id="DejaVuSans-41" d="M 2188 4044 
L 1331 1722 
L 3047 1722 
L 2188 4044 
z
M 1831 4666 
L 2547 4666 
L 4325 0 
L 3669 0 
L 3244 1197 
L 1141 1197 
L 716 0 
L 50 0 
L 1831 4666 
z
" transform="scale(0.015625)"/>
      <path id="DejaVuSans-3d" d="M 678 2906 
L 4684 2906 
L 4684 2381 
L 678 2381 
L 678 2906 
z
M 678 1631 
L 4684 1631 
L 4684 1100 
L 678 1100 
L 678 1631 
z
" transform="scale(0.015625)"/>
      <path id="DejaVuSans-46" d="M 628 4666 
L 3309 4666 
L 3309 4134 
L 1259 4134 
L 1259 2759 
L 3109 2759 
L 3109 2228 
L 1259 2228 
L 1259 0 
L 628 0 
L 628 4666 
z
" transform="scale(0.015625)"/>
      <path id="DejaVuSans-43" d="M 4122 4306 
L 4122 3641 
Q 3803 3938 3442 4084 
Q 3081 4231 2675 4231 
Q 1875 4231 1450 3742 
Q 1025 3253 1025 2328 
Q 1025 1406 1450 917 
Q 1875 428 2675 428 
Q 3081 428 3442 575 
Q 3803 722 4122 1019 
L 4122 359 
Q 3791 134 3420 21 
Q 3050 -91 2638 -91 
Q 1578 -91 968 557 
Q 359 1206 359 2328 
Q 359 3453 968 4101 
Q 1578 4750 2638 4750 
Q 3056 4750 3426 4639 
Q 3797 4528 4122 4306 
z
" transform="scale(0.015625)"/>
      <path id="DejaVuSans-2f" d="M 1625 4666 
L 2156 4666 
L 531 -594 
L 0 -594 
L 1625 4666 
z
" transform="scale(0.015625)"/>
      <path id="DejaVuSans-47" d="M 3809 666 
L 3809 1919 
L 2778 1919 
L 2778 2438 
L 4434 2438 
L 4434 434 
Q 4069 175 3628 42 
Q 3188 -91 2688 -91 
Q 1594 -91 976 548 
Q 359 1188 359 2328 
Q 359 3472 976 4111 
Q 1594 4750 2688 4750 
Q 3144 4750 3555 4637 
Q 3966 4525 4313 4306 
L 4313 3634 
Q 3963 3931 3569 4081 
Q 3175 4231 2741 4231 
Q 1884 4231 1454 3753 
Q 1025 3275 1025 2328 
Q 1025 1384 1454 906 
Q 1884 428 2741 428 
Q 3075 428 3337 486 
Q 3600 544 3809 666 
z
" transform="scale(0.015625)"/>
      <path id="DejaVuSans-3b" d="M 750 3309 
L 1409 3309 
L 1409 2516 
L 750 2516 
L 750 3309 
z
M 750 794 
L 1409 794 
L 1409 256 
L 897 -744 
L 494 -744 
L 750 256 
L 750 794 
z
" transform="scale(0.015625)"/>
     </defs>
     <use xlink:href="#DejaVuSans-41"/>
     <use xlink:href="#DejaVuSans-62" transform="translate(68.408203 0)"/>
     <use xlink:href="#DejaVuSans-6f" transform="translate(131.884766 0)"/>
     <use xlink:href="#DejaVuSans-76" transform="translate(193.066406 0)"/>
     <use xlink:href="#DejaVuSans-65" transform="translate(252.246094 0)"/>
     <use xlink:href="#DejaVuSans-20" transform="translate(313.769531 0)"/>
     <use xlink:href="#DejaVuSans-74" transform="translate(345.556641 0)"/>
     <use xlink:href="#DejaVuSans-68" transform="translate(384.765625 0)"/>
     <use xlink:href="#DejaVuSans-65" transform="translate(448.144531 0)"/>
     <use xlink:href="#DejaVuSans-20" transform="translate(509.667969 0)"/>
     <use xlink:href="#DejaVuSans-6c" transform="translate(541.455078 0)"/>
     <use xlink:href="#DejaVuSans-69" transform="translate(569.238281 0)"/>
     <use xlink:href="#DejaVuSans-6e" transform="translate(597.021484 0)"/>
     <use xlink:href="#DejaVuSans-65" transform="translate(660.400391 0)"/>
     <use xlink:href="#DejaVuSans-20" transform="translate(721.923828 0)"/>
     <use xlink:href="#DejaVuSans-3d" transform="translate(753.710938 0)"/>
     <use xlink:href="#DejaVuSans-20" transform="translate(837.5 0)"/>
     <use xlink:href="#DejaVuSans-75" transform="translate(869.287109 0)"/>
     <use xlink:href="#DejaVuSans-6e" transform="translate(932.666016 0)"/>
     <use xlink:href="#DejaVuSans-64" transform="translate(996.044922 0)"/>
     <use xlink:href="#DejaVuSans-65" transform="translate(1059.521484 0)"/>
     <use xlink:href="#DejaVuSans-72" transform="translate(1121.044922 0)"/>
     <use xlink:href="#DejaVuSans-2d" transform="translate(1155.783203 0)"/>
     <use xlink:href="#DejaVuSans-70" transform="translate(1191.867188 0)"/>
     <use xlink:href="#DejaVuSans-72" transform="translate(1255.34375 0)"/>
     <use xlink:href="#DejaVuSans-65" transform="translate(1294.207031 0)"/>
     <use xlink:href="#DejaVuSans-64" transform="translate(1355.730469 0)"/>
     <use xlink:href="#DejaVuSans-69" transform="translate(1419.207031 0)"/>
     <use xlink:href="#DejaVuSans-63" transform="translate(1446.990234 0)"/>
     <use xlink:href="#DejaVuSans-74" transform="translate(1501.970703 0)"/>
     <use xlink:href="#DejaVuSans-69" transform="translate(1541.179688 0)"/>
     <use xlink:href="#DejaVuSans-6f" transform="translate(1568.962891 0)"/>
     <use xlink:href="#DejaVuSans-6e" transform="translate(1630.144531 0)"/>
     <use xlink:href="#DejaVuSans-20" transform="translate(1693.523438 0)"/>
     <use xlink:href="#DejaVuSans-28" transform="translate(1725.310547 0)"/>
     <use xlink:href="#DejaVuSans-46" transform="translate(1764.324219 0)"/>
     <use xlink:href="#DejaVuSans-69" transform="translate(1814.59375 0)"/>
     <use xlink:href="#DejaVuSans-6e" transform="translate(1842.376953 0)"/>
     <use xlink:href="#DejaVuSans-64" transform="translate(1905.755859 0)"/>
     <use xlink:href="#DejaVuSans-69" transform="translate(1969.232422 0)"/>
     <use xlink:href="#DejaVuSans-6e" transform="translate(1997.015625 0)"/>
     <use xlink:href="#DejaVuSans-67" transform="translate(2060.394531 0)"/>
     <use xlink:href="#DejaVuSans-20" transform="translate(2123.871094 0)"/>
     <use xlink:href="#DejaVuSans-43" transform="translate(2155.658203 0)"/>
     <use xlink:href="#DejaVuSans-2f" transform="translate(2225.482422 0)"/>
     <use xlink:href="#DejaVuSans-47" transform="translate(2259.173828 0)"/>
     <use xlink:href="#DejaVuSans-29" transform="translate(2336.664062 0)"/>
     <use xlink:href="#DejaVuSans-3b" transform="translate(2375.677734 0)"/>
     <use xlink:href="#DejaVuSans-20" transform="translate(2409.369141 0)"/>
     <use xlink:href="#DejaVuSans-62" transform="translate(2441.15625 0)"/>
     <use xlink:href="#DejaVuSans-65" transform="translate(2504.632812 0)"/>
     <use xlink:href="#DejaVuSans-6c" transform="translate(2566.15625 0)"/>
     <use xlink:href="#DejaVuSans-6f" transform="translate(2593.939453 0)"/>
     <use xlink:href="#DejaVuSans-77" transform="translate(2655.121094 0)"/>
     <use xlink:href="#DejaVuSans-20" transform="translate(2736.908203 0)"/>
     <use xlink:href="#DejaVuSans-3d" transform="translate(2768.695312 0)"/>
     <use xlink:href="#DejaVuSans-20" transform="translate(2852.484375 0)"/>
     <use xlink:href="#DejaVuSans-6f" transform="translate(2884.271484 0)"/>
     <use xlink:href="#DejaVuSans-76" transform="translate(2945.453125 0)"/>
     <use xlink:href="#DejaVuSans-65" transform="translate(3004.632812 0)"/>
     <use xlink:href="#DejaVuSans-72" transform="translate(3066.15625 0)"/>
     <use xlink:href="#DejaVuSans-2d" transform="translate(3100.894531 0)"/>
     <use xlink:href="#DejaVuSans-70" transform="translate(3136.978516 0)"/>
     <use xlink:href="#DejaVuSans-72" transform="translate(3200.455078 0)"/>
     <use xlink:href="#DejaVuSans-65" transform="translate(3239.318359 0)"/>
     <use xlink:href="#DejaVuSans-64" transform="translate(3300.841797 0)"/>
     <use xlink:href="#DejaVuSans-69" transform="translate(3364.318359 0)"/>
     <use xlink:href="#DejaVuSans-63" transform="translate(3392.101562 0)"/>
     <use xlink:href="#DejaVuSans-74" transform="translate(3447.082031 0)"/>
     <use xlink:href="#DejaVuSans-69" transform="translate(3486.291016 0)"/>
     <use xlink:href="#DejaVuSans-6f" transform="translate(3514.074219 0)"/>
     <use xlink:href="#DejaVuSans-6e" transform="translate(3575.255859 0)"/>
    </g>
   </g>
   <g id="legend_1">
    <g id="line2d_26">
     <path d="M 49.670938 51.664469 
L 58.670938 51.664469 
L 67.670938 51.664469 
" style="fill: none; stroke-dasharray: 5.55,2.4; stroke-dashoffset: 0; stroke: #888888; stroke-opacity: 0.6; stroke-width: 1.5"/>
    </g>
    <g id="text_24">
     <!-- perfect prediction (y=x) -->
     <g transform="translate(74.870938 54.814469) scale(0.09 -0.09)">
      <defs>
       <path id="DejaVuSans-79" d="M 2059 -325 
Q 1816 -950 1584 -1140 
Q 1353 -1331 966 -1331 
L 506 -1331 
L 506 -850 
L 844 -850 
Q 1081 -850 1212 -737 
Q 1344 -625 1503 -206 
L 1606 56 
L 191 3500 
L 800 3500 
L 1894 763 
L 2988 3500 
L 3597 3500 
L 2059 -325 
z
" transform="scale(0.015625)"/>
       <path id="DejaVuSans-78" d="M 3513 3500 
L 2247 1797 
L 3578 0 
L 2900 0 
L 1881 1375 
L 863 0 
L 184 0 
L 1544 1831 
L 300 3500 
L 978 3500 
L 1906 2253 
L 2834 3500 
L 3513 3500 
z
" transform="scale(0.015625)"/>
      </defs>
      <use xlink:href="#DejaVuSans-70"/>
      <use xlink:href="#DejaVuSans-65" transform="translate(63.476562 0)"/>
      <use xlink:href="#DejaVuSans-72" transform="translate(125 0)"/>
      <use xlink:href="#DejaVuSans-66" transform="translate(166.113281 0)"/>
      <use xlink:href="#DejaVuSans-65" transform="translate(201.318359 0)"/>
      <use xlink:href="#DejaVuSans-63" transform="translate(262.841797 0)"/>
      <use xlink:href="#DejaVuSans-74" transform="translate(317.822266 0)"/>
      <use xlink:href="#DejaVuSans-20" transform="translate(357.03125 0)"/>
      <use xlink:href="#DejaVuSans-70" transform="translate(388.818359 0)"/>
      <use xlink:href="#DejaVuSans-72" transform="translate(452.294922 0)"/>
      <use xlink:href="#DejaVuSans-65" transform="translate(491.158203 0)"/>
      <use xlink:href="#DejaVuSans-64" transform="translate(552.681641 0)"/>
      <use xlink:href="#DejaVuSans-69" transform="translate(616.158203 0)"/>
      <use xlink:href="#DejaVuSans-63" transform="translate(643.941406 0)"/>
      <use xlink:href="#DejaVuSans-74" transform="translate(698.921875 0)"/>
      <use xlink:href="#DejaVuSans-69" transform="translate(738.130859 0)"/>
      <use xlink:href="#DejaVuSans-6f" transform="translate(765.914062 0)"/>
      <use xlink:href="#DejaVuSans-6e" transform="translate(827.095703 0)"/>
      <use xlink:href="#DejaVuSans-20" transform="translate(890.474609 0)"/>
      <use xlink:href="#DejaVuSans-28" transform="translate(922.261719 0)"/>
      <use xlink:href="#DejaVuSans-79" transform="translate(961.275391 0)"/>
      <use xlink:href="#DejaVuSans-3d" transform="translate(1020.455078 0)"/>
      <use xlink:href="#DejaVuSans-78" transform="translate(1104.244141 0)"/>
      <use xlink:href="#DejaVuSans-29" transform="translate(1163.423828 0)"/>
     </g>
    </g>
   </g>
  </g>
 </g>
 <defs>
  <clipPath id="pc5473675a1">
   <rect x="41.570938" y="39.875875" width="446.4" height="332.64"/>
  </clipPath>
 </defs>
</svg>
